<?xml version="1.0" encoding="UTF-8" standalone="no"?>
<!-- Created with Inkscape (http://www.inkscape.org/) -->

<svg
   width="1024"
   height="1024"
   viewBox="0 0 270.93333 270.93333"
   version="1.1"
   id="svg5"
   xml:space="preserve"
   inkscape:version="1.2.1 (0f2f062aeb, 2022-09-21, custom)"
   sodipodi:docname="icon.svg"
   inkscape:export-filename="../e0492726/favicon.png"
   inkscape:export-xdpi="1.5460554"
   inkscape:export-ydpi="1.5460554"
   xmlns:inkscape="http://www.inkscape.org/namespaces/inkscape"
   xmlns:sodipodi="http://sodipodi.sourceforge.net/DTD/sodipodi-0.dtd"
   xmlns="http://www.w3.org/2000/svg"
   xmlns:svg="http://www.w3.org/2000/svg"><sodipodi:namedview
     id="namedview7"
     pagecolor="#505050"
     bordercolor="#ffffff"
     borderopacity="1"
     inkscape:showpageshadow="0"
     inkscape:pageopacity="0"
     inkscape:pagecheckerboard="1"
     inkscape:deskcolor="#505050"
     inkscape:document-units="mm"
     showgrid="true"
     inkscape:zoom="0.63480594"
     inkscape:cx="441.07968"
     inkscape:cy="590.73171"
     inkscape:window-width="1920"
     inkscape:window-height="1012"
     inkscape:window-x="0"
     inkscape:window-y="31"
     inkscape:window-maximized="1"
     inkscape:current-layer="svg5"><inkscape:grid
       type="xygrid"
       id="grid132"
       spacingx="1.0583333"
       spacingy="1.0583333"
       empspacing="8" /></sodipodi:namedview><defs
     id="defs2" /><g
     inkscape:label="Outer blue stripe"
     inkscape:groupmode="layer"
     id="layer1"><path
       id="path1756"
       style="fill:#699ff5;fill-opacity:1;stroke:none;stroke-width:0.264583px;stroke-linecap:butt;stroke-linejoin:miter;stroke-opacity:1"
       d="M 270.93333,0 16.933333,16.933333 8.4666667,169.33333 C 4.2333332,237.06666 33.866666,266.69999 101.6,262.46667 L 254,254 Z"
       sodipodi:nodetypes="cccccc" /></g><g
     inkscape:groupmode="layer"
     id="layer3"
     inkscape:label="White stripe"><path
       id="path1756-3"
       style="fill:#f5f5f5;fill-opacity:1;stroke:none;stroke-width:0.264583px;stroke-linecap:butt;stroke-linejoin:miter;stroke-opacity:1"
       d="M 254.98438,15.386719 C 180.17199,20.36892 105.35933,25.347026 30.546875,30.328125 27.792758,80.500743 24.924704,130.66808 22.424535,180.8539 c 0.02351,11.94065 1.169827,24.07416 5.366036,35.3337 3.23006,8.59912 8.783448,16.53269 16.539665,21.60863 8.140691,5.46847 17.801071,8.17303 27.42087,9.55771 14.359095,2.01251 28.888764,0.78739 43.293514,0.0232 41.85359,-2.33058 83.70739,-4.65755 125.56085,-6.99039 4.99476,-75.01363 9.98655,-150.027461 14.98242,-225.041017 -0.20117,0.01367 -0.40234,0.02734 -0.60351,0.04102 z" /></g><g
     inkscape:groupmode="layer"
     id="layer4"
     inkscape:label="Inner blue area"><path
       id="path1756-3-6"
       style="display:inline;fill:#699ff5;fill-opacity:1;stroke:none;stroke-width:0.264583px;stroke-linecap:butt;stroke-linejoin:miter;stroke-opacity:1"
       d="m 43.697266,44.173828 c -2.532865,46.655036 -5.233103,93.302782 -7.387482,139.976902 0.253262,9.37479 1.257302,18.89993 4.5867,27.75357 1.18841,3.14475 2.900926,6.24963 4.969805,8.85845 2.544239,3.26145 5.897581,5.96826 9.698746,7.70165 7.787118,3.87759 16.530028,5.28494 25.134139,5.84132 11.468943,0.70518 23.023246,-0.30525 34.507856,-0.86041 37.18425,-2.06966 74.36849,-4.13932 111.55274,-6.20898 4.34375,-65.36459 8.6875,-130.729169 13.03125,-196.093752 -65.36459,4.34375 -130.72917,8.6875 -196.093754,13.03125 z" /></g><g
     inkscape:groupmode="layer"
     id="layer5"
     inkscape:label="Text"><text
       xml:space="preserve"
       style="font-style:normal;font-weight:normal;font-size:176.389px;line-height:1.25;font-family:sans-serif;fill:#000000;fill-opacity:1;stroke:none;stroke-width:0.264583"
       x="59.619362"
       y="193.32231"
       id="text2245"><tspan
         sodipodi:role="line"
         id="tspan2243"
         style="font-style:normal;font-variant:normal;font-weight:normal;font-stretch:normal;font-size:176.389px;font-family:Boogaloo;-inkscape-font-specification:Boogaloo;fill:#ffffff;fill-opacity:1;stroke-width:0.264583"
         x="59.619362"
         y="193.32231">JS</tspan></text></g></svg>
